<svg xmlns="http://www.w3.org/2000/svg" version="1.1" xmlns:xlink="http://www.w3.org/1999/xlink" xmlns:svgjs="http://svgjs.com/svgjs" width="1440" height="900" preserveAspectRatio="none" viewBox="0 0 1440 900"><g mask="url(&quot;#SvgjsMask1053&quot;)" fill="none"><rect width="1440" height="900" x="0" y="0" fill="rgba(255, 150, 138, 1)"></rect><path d="M185.0691662236029-29.97993948237702L55.73707625939892 17.093091600031883 191.01266786511428 187.55471100513344z" fill="rgba(50, 146, 131, 0.4)" class="triangle-float3"></path><path d="M215.7826485117095 659.7806194907753L91.05843159341757 661.9576887952052 156.68614400920836 847.9554795204282z" fill="rgba(50, 146, 131, 0.4)" class="triangle-float2"></path><path d="M149.082,843.384C178.603,845.033,212.319,843.011,227.791,817.815C243.716,791.882,233.95,758.397,216.639,733.368C201.67,711.725,175.385,704.825,149.082,704.017C120.803,703.148,88.712,704.861,73.93,728.984C58.723,753.801,68.283,785.469,84.263,809.796C98.583,831.595,123.041,841.929,149.082,843.384" fill="rgba(50, 146, 131, 0.4)" class="triangle-float3"></path><path d="M212.966,727.209C247.436,728.474,282.602,717.315,301.355,688.365C321.717,656.932,324.373,616.256,305.97,583.637C287.27,550.491,251.011,530.75,212.966,531.7C176.447,532.612,144.445,555.638,127.671,588.089C112.173,618.072,117.497,653.493,135.139,682.267C151.921,709.64,180.88,726.032,212.966,727.209" fill="rgba(50, 146, 131, 0.4)" class="triangle-float3"></path><path d="M958.1792043278281 498.2640915723218L1115.9302312128993 391.8596803977025 851.7747931532087 340.5130646872505z" fill="rgba(50, 146, 131, 0.4)" class="triangle-float3"></path><path d="M609.5526495502685 634.8524086982762L612.8809498347679 825.5306042928839 803.5591454293756 822.2023040083845 800.2308451448762 631.5241084137768z" fill="rgba(50, 146, 131, 0.4)" class="triangle-float2"></path><path d="M619.144,420.797C662.202,420.528,703.788,401.562,725.713,364.503C748.026,326.788,747.408,279.518,725.018,241.849C703.1,204.973,661.945,182.316,619.144,185.206C580.376,187.824,555.502,221.372,535.441,254.649C514.411,289.534,491.92,329.469,510.247,365.847C529.853,404.765,575.567,421.069,619.144,420.797" fill="rgba(50, 146, 131, 0.4)" class="triangle-float2"></path><path d="M1178.8114746628605-11.988797182755135L952.1786244354598-137.61343742034308 826.5539841978718 89.01941280705763 1053.1868344252725 214.64405304464555z" fill="rgba(50, 146, 131, 0.4)" class="triangle-float1"></path><path d="M382.1935480469164 173.46205559024264L476.88780438834056 303.79751799104156 625.0438698188268 96.5884022785059z" fill="rgba(50, 146, 131, 0.4)" class="triangle-float2"></path><path d="M885.885,1188.65C967.686,1191.297,1042.217,1144.002,1083.997,1073.625C1126.708,1001.68,1132.539,913.399,1093.095,839.612C1051.295,761.417,974.549,702.392,885.885,703.021C798.132,703.644,722.576,763.841,683.709,842.519C648.835,913.115,669.091,993.491,708.805,1061.482C748.089,1128.738,808.038,1186.131,885.885,1188.65" fill="rgba(50, 146, 131, 0.4)" class="triangle-float2"></path><path d="M1187.9973897956913 75.95178994981197L1153.4972413430546-44.36452607856904 990.2728415268015 67.5438546145767z" fill="rgba(50, 146, 131, 0.4)" class="triangle-float1"></path><path d="M1410.404839534058 406.4627788659478L1342.677592529766 170.269799421599 1106.484613085417 237.99704642589114 1174.2118600897093 474.19002587023994z" fill="rgba(50, 146, 131, 0.4)" class="triangle-float1"></path><path d="M55.37192621091735 924.4858420688557L233.30316445243594 873.6483454284219 118.91879701145967 759.2639779874456z" fill="rgba(50, 146, 131, 0.4)" class="triangle-float1"></path></g><defs><mask id="SvgjsMask1053"><rect width="1440" height="900" fill="#ffffff"></rect></mask><style>
            @keyframes float1 {
                0%{transform: translate(0, 0)}
                50%{transform: translate(-10px, 0)}
                100%{transform: translate(0, 0)}
            }

            .triangle-float1 {
                animation: float1 5s infinite;
            }

            @keyframes float2 {
                0%{transform: translate(0, 0)}
                50%{transform: translate(-5px, -5px)}
                100%{transform: translate(0, 0)}
            }

            .triangle-float2 {
                animation: float2 4s infinite;
            }

            @keyframes float3 {
                0%{transform: translate(0, 0)}
                50%{transform: translate(0, -10px)}
                100%{transform: translate(0, 0)}
            }

            .triangle-float3 {
                animation: float3 6s infinite;
            }
        </style></defs></svg>