<svg xmlns="http://www.w3.org/2000/svg" version="1.1" xmlns:xlink="http://www.w3.org/1999/xlink" xmlns:svgjs="http://svgjs.com/svgjs" width="1440" height="900" preserveAspectRatio="none" viewBox="0 0 1440 900"><g mask="url(&quot;#SvgjsMask1003&quot;)" fill="none"><rect width="1440" height="900" x="0" y="0" fill="rgba(255, 180, 138, 1)"></rect><path d="M1208.982,666.786C1233.294,666.976,1259.275,663.957,1273.089,643.949C1288.682,621.364,1291.505,590.983,1277.692,567.267C1263.956,543.684,1236.255,532.871,1208.982,533.883C1183.469,534.83,1161.247,549.895,1148.57,572.057C1135.988,594.053,1132.965,621.593,1146.59,642.958C1159.42,663.076,1185.122,666.599,1208.982,666.786" fill="rgba(146, 77, 50, 0.4)" class="triangle-float1"></path><path d="M848.68509144074 420.1839053050095L972.8458358180585 573.5096554898353 1126.1715860028844 449.3489111125168 1002.010841625566 296.023160927691z" fill="rgba(146, 77, 50, 0.4)" class="triangle-float3"></path><path d="M761.345,251.326C818.613,248.001,864.666,208.767,892.388,158.546C919.071,110.208,926.222,51.442,897.816,4.096C870.113,-42.078,815.159,-61.754,761.345,-59.874C710.927,-58.113,668.853,-28.604,640.447,13.088C606.832,62.424,573.983,122.226,600.999,175.463C629.678,231.977,698.078,254.999,761.345,251.326" fill="rgba(146, 77, 50, 0.4)" class="triangle-float2"></path><path d="M1505.5355463165474 209.36286374873416L1207.4779202748575 193.45747570663596 1321.8577008452924 427.9707792091955z" fill="rgba(146, 77, 50, 0.4)" class="triangle-float3"></path><path d="M1458.033,1101.059C1520.482,1105.408,1586.232,1078.189,1614.595,1022.383C1641.201,970.034,1611.217,911.292,1579.649,861.777C1551.156,817.086,1511.005,778.581,1458.033,776.817C1402.183,774.957,1348.208,804.08,1321.528,853.181C1295.88,900.383,1309.26,955.867,1335.174,1002.924C1362.273,1052.133,1401.992,1097.156,1458.033,1101.059" fill="rgba(146, 77, 50, 0.4)" class="triangle-float3"></path><path d="M1052.5033454932868 36.334786814118246L978.3887535867054-65.67519752919965 862.4310730250193 96.50168250233155z" fill="rgba(146, 77, 50, 0.4)" class="triangle-float1"></path><path d="M1331.816,1066.495C1391.819,1067.093,1455.206,1051.391,1486.004,999.891C1517.453,947.302,1506.215,880.902,1473.962,828.802C1443.473,779.552,1389.668,753.7,1331.816,750.825C1267.543,747.63,1196.216,758.291,1162.889,813.341C1128.732,869.762,1146.253,942.007,1182.862,996.869C1215.468,1045.732,1273.076,1065.909,1331.816,1066.495" fill="rgba(146, 77, 50, 0.4)" class="triangle-float2"></path><path d="M631.7507687355161 624.0064728679334L814.7397013947696 721.3034142525256 912.0366427793616 538.3144815932721 729.0477101201083 441.01754020868003z" fill="rgba(146, 77, 50, 0.4)" class="triangle-float1"></path><path d="M331.6269860179221 439.960518756059L250.02500905474005 479.7604622124036 350.5259127208479 582.2634559290043z" fill="rgba(146, 77, 50, 0.4)" class="triangle-float3"></path><path d="M374.0574305306199 524.0460435057314L527.5721106064177 694.868476120197 592.9349071947273 505.0411312731161z" fill="rgba(146, 77, 50, 0.4)" class="triangle-float3"></path><path d="M1092.9554002027007 477.0817909732044L1070.5427037701968 263.8392287125083 857.3001415095007 286.25192514501225 879.7128379420046 499.49448740570836z" fill="rgba(146, 77, 50, 0.4)" class="triangle-float3"></path><path d="M486.97433396198034 160.5946172018653L442.8840513328752 314.3557056756346 596.6451398066445 358.4459883047398 640.7354224357497 204.6848998309705z" fill="rgba(146, 77, 50, 0.4)" class="triangle-float1"></path><path d="M-48.64822248379191-73.09859294782925L58.397161609805664 179.75424466111193 206.17110087501646-9.387772357602756z" fill="rgba(146, 77, 50, 0.4)" class="triangle-float1"></path></g><defs><mask id="SvgjsMask1003"><rect width="1440" height="900" fill="#ffffff"></rect></mask><style>
            @keyframes float1 {
                0%{transform: translate(0, 0)}
                50%{transform: translate(-10px, 0)}
                100%{transform: translate(0, 0)}
            }

            .triangle-float1 {
                animation: float1 5s infinite;
            }

            @keyframes float2 {
                0%{transform: translate(0, 0)}
                50%{transform: translate(-5px, -5px)}
                100%{transform: translate(0, 0)}
            }

            .triangle-float2 {
                animation: float2 4s infinite;
            }

            @keyframes float3 {
                0%{transform: translate(0, 0)}
                50%{transform: translate(0, -10px)}
                100%{transform: translate(0, 0)}
            }

            .triangle-float3 {
                animation: float3 6s infinite;
            }
        </style></defs></svg>